/* XPM */
static char *chaussure17445619001744562080[] = {
/* columns rows colors chars-per-pixel */
"54 54 204 2 ",
"   c #12325E",
".  c #20375A",
"X  c #042E65",
"o  c #0B366A",
"O  c #0A3468",
"+  c #153966",
"@  c #183E6D",
"#  c #153C6B",
"$  c #0A3D7A",
"%  c #173E71",
"&  c #1C426D",
"*  c #1B4473",
"=  c #14437C",
"-  c #1A477C",
";  c #1D487A",
":  c #154175",
">  c #29466B",
",  c #254B76",
"<  c #294C75",
"1  c #2A4F79",
"2  c #2C517A",
"3  c #33557B",
"4  c #365678",
"5  c #51565C",
"6  c #525F69",
"7  c #56636D",
"8  c #486175",
"9  c #546571",
"0  c #576A76",
"q  c #5B6C76",
"w  c #5A6E7A",
"e  c #576A77",
"r  c #5C707B",
"t  c #616D75",
"y  c #647176",
"u  c #62737B",
"i  c #6B787C",
"p  c #737C7B",
"a  c #817966",
"s  c #79837E",
"d  c #888777",
"f  c #908E7A",
"g  c #8F917F",
"h  c #9F9376",
"j  c #9F977A",
"k  c #9E8E6F",
"l  c #A49676",
"z  c #A29679",
"x  c #A59A7B",
"c  c #AA9C7A",
"v  c #A89977",
"b  c #A18E6A",
"n  c #BBA67A",
"m  c #BBA577",
"M  c #C1AC7D",
"N  c #DBBA7C",
"B  c #D3B57B",
"V  c #E5BF7B",
"C  c #E6C17D",
"Z  c #EBC47D",
"A  c #F0C67C",
"S  c #164782",
"D  c #174883",
"F  c #1B4B83",
"G  c #164C8A",
"H  c #1C548C",
"J  c #1C5395",
"K  c #1A5498",
"L  c #1D599E",
"P  c #185A99",
"I  c #124A8A",
"U  c #24598E",
"Y  c #26568A",
"T  c #22599D",
"R  c #265A96",
"E  c #2C5687",
"W  c #2D619D",
"Q  c #2B6294",
"!  c #346999",
"~  c #3E6684",
"^  c #1D5CA1",
"/  c #235EA6",
"(  c #235FA8",
")  c #1D64AB",
"_  c #1C67A9",
"`  c #1E6EB3",
"'  c #1B67B1",
"]  c #2361A7",
"[  c #2361A9",
"{  c #236BAA",
"}  c #2A6BA7",
"|  c #306CA9",
" . c #236BB3",
".. c #246BB3",
"X. c #2474BB",
"o. c #2579BE",
"O. c #2C79BC",
"+. c #2974B9",
"@. c #327CBC",
"#. c #3C7DBE",
"$. c #426483",
"%. c #496C88",
"&. c #476A94",
"*. c #5B789C",
"=. c #4C7092",
"-. c #637E9C",
";. c #5678A2",
":. c #627EA1",
">. c #237AC2",
",. c #297DC3",
"<. c #2A7FC8",
"1. c #798885",
"2. c #748597",
"3. c #5186B7",
"4. c #6480A2",
"5. c #6B8DB7",
"6. c #6E91BB",
"7. c #7894B8",
"8. c #2B80C6",
"9. c #2A83CB",
"0. c #2783CE",
"q. c #3384C6",
"w. c #3886C8",
"e. c #2D8AD5",
"r. c #528DC2",
"t. c #4490CE",
"y. c #5795CB",
"u. c #5C9ED4",
"i. c #699ECB",
"p. c #7098C4",
"a. c #5EA0D5",
"s. c #6DA7D6",
"d. c #73ACDA",
"f. c #72A9D7",
"g. c #78B0DD",
"h. c #71A2CE",
"j. c #949582",
"k. c #8F9280",
"l. c #A39E82",
"z. c #A6A182",
"x. c #ACA483",
"c. c #A8A68C",
"v. c #AFA885",
"b. c #B7AB82",
"n. c #859EBC",
"m. c #99A6B4",
"M. c #C4B485",
"N. c #C4B688",
"B. c #DCBE81",
"V. c #D4BB82",
"C. c #DEC386",
"Z. c #DAC58B",
"A. c #D7C289",
"S. c #E4C583",
"D. c #E9C682",
"F. c #EBCA85",
"G. c #E3CB8C",
"H. c #ECCE89",
"J. c #E7CA87",
"K. c #F1CD84",
"L. c #F0CF88",
"P. c #EED38D",
"I. c #F3D086",
"U. c #F2D48D",
"Y. c #F6D88E",
"T. c #FADB8E",
"R. c #F9D78B",
"E. c #E5CF92",
"W. c #EFD492",
"Q. c #E6D299",
"!. c #F0D692",
"~. c #F3D995",
"^. c #FADB91",
"/. c #F2DA9A",
"(. c #F9DD99",
"). c #F0D698",
"_. c #F4DDA1",
"`. c #8EB8DC",
"'. c #8AADCE",
"]. c #A7B7CA",
"[. c #AFBFD2",
"{. c #B3BFCE",
"}. c #91BFE3",
"|. c #8FBEE2",
" X c #B7C4D4",
".X c #B8C5D4",
"XX c #BAC8D9",
"oX c #95C1E4",
"OX c #AECFE9",
"+X c #A9C8E2",
"@X c #BECFE1",
"#X c #BAD6EC",
"$X c #B3D2EB",
"%X c #ADD0EB",
"&X c #C1CFDE",
"*X c #C2D5E8",
"=X c #C1DBF0",
"-X c #DCE3EC",
";X c #C8E1F4",
":X c #D9E7F3",
">X c #E6ECF2",
",X c #EBEFF4",
"<X c #ECF2F7",
"1X c #F1F6F9",
/* pixels */
"C V V V V D.F.P.P.P.P.P.P.P.P.P.P.!.P.P.Q.P.P.!./._._._._.!.Z C Z G.P.!.!.P.H.Z C C C C D.P.P.H.Z C V V C V ",
"C C C C D.D.H.P.!.P.P.P.A Y.P.!.P.P.P.P.P.P.!.!./._._._._.Q.E.C Z P.P.P.P.P.P.J.C C C C C P.P.H.F.C V C V C ",
"V V C D.F.G.W.W.!.P.P.P.~.P.Z P.!.Z P.P.P.P.P.!.!./././.~.!.Z C C Z H.P.P.P.H.A Z C C C D.F.F.F.D.D.D.C C V ",
"V C D.H.W././././.Y.P.P.!.P.!.Z Z E.Z P.P.P.P.P.!.!./.!.!.!.G.C C C Z J.P.P.P.H.P.Z C C C C D.F.F.K.D.C C V ",
"V D.D.W./._._.)./.!.P.P.!.P.P.P.Z Z P.!.!.P.P.P.!.P.!.P.P.P.Z Z C C Z J.P.P.!.P.P.J.A Z C C Z F.H.H.H.D.Z V ",
"Z D.H.W./._._.)./.P.P.P.P.P.Z Z Z E.Z P.!.!.!.!.P.P.P.P.P.Z E.Z Z Z Z G.P.!.!.!.U.P.J.Z Z J.Z Z H.U.P.F.D.D.",
"F.H.P.P.).)./.W.!.!.P.P.P.P.P.Z P.Z !.P.!./././.!.P.P.P.P.P.P.Z H.J.G.P.W././.!.U.P.P.J.H.J.H.P.U.W.P.H.H.H.",
"P.P.P.P.P.P.E.W.!.P.P.P.P.P.P.P.P.P.P.P.!./././.!.P.!.P.P.P.P.!.P.P.P.!./././.!.U.P.P.P.P.P.P.P.P.H.P.P.H.U.",
"W.P.P.H.H.P.P.P.P.P.P.P.!.!.!.!.P.P.P.Y.Y.~.(.(.^.Y.Y.P.Z P.P.P.P.Y.P.!.!./.!.!.P.P.P.P.P.P.P.P.H.H.H.F.H.H.",
"W.P.H.J.Z J.J.P.P.P.P.!.~./.!.!.Y.P.A A P.Y.~.^.~.Y.!.Z Z E.Z P.P.P.P.P.!.!.!.!.P.P.Z G.Z G.P.P.H.D.D.D.D.D.",
"P.P.H.D.Z J.A P.U.U.P.!./././.!.P.Z C N N Z.G.G.G.E.G.C Z P.P.!.P.Y.Y.P.!.P.!.!.P.G.Z Z Z P.P.Z D.C V C C C ",
"H.F.F.D.J.Z P.P.P.U.P.!./././.~.E.N m l j x x c j c b.B Z Z Z P.P.!.!.!.P.P.P.P.P.P.G.Z Z P.P.P.F.S.D.C V V ",
"S.D.D.F.H.H.P.P.P.P.U.!.!.!.!.~.E.N.s q 6 6 9 9 5 s s b.G.P.A !.!.!./.!.!.P.P.P.P.P.A P.G.P.P.P.H.H.D.S.C V ",
"C C D.H.P.U.P.P.P.U.P.U.P.P.Y.Y.G.c s > + + + +   & s j E.Y.Y.!.!./././.!.Y.P.P.P.P.P.P.P.P.P.P.W.P.H.S.C V ",
"D.D.F.I.Y.Y.Y.U.Y.U.P.H.P.P.P.Y.G.x 8 + O X O O   + 8 j G.^.Y.!.P././.~.!.P.!.P.P.P.!.~.!.!.P.P.P.P.H.F.D.D.",
"H.F.P.U.Y.Y.Y.Y.Y.P.U.H.Z Z Z Y.G.c 0 & : O + O O & s v.P.^.Y.P.!.!.!.!.!.P.P.P.P.!./././.!.!.P.P.P.P.H.H.H.",
"P.P.H.G.G.G.G.G.G.P.P.H.Z Z F.R.G.c.s : % : * * : , r z.Z.P.P.P.P.U.P.P.U.P.P.U.P.!./././.!.!.P.W.W.P.W.P.P.",
"!.W.Z.N.v.z.l.x.N.Z.P.I.I.F.I.R.E.n s ; = - F H H U %.1.z.N.C.P.U.P.P.U.P.U.P.P.P.!././.!.!.P.!.W.W.W.W.W.P.",
"Y.G.N.k.i w e i g N.P.T.R.I.R.T.E.v.s : = G R / ] } ! %.u f M S.U.U.P.P.U.U.P.P.P.P.!.!.!.Y.Y.!././.).W.P.P.",
"T.G.b.i 2 * % 4 u z.Z.E.G.G.G.P.Z.j 0 : = J / ..X.+.{ H 3 y z B Z H.P.P.P.U.U.P.Y.P.U.P.P.P.P.!./././.W.W.P.",
"^.G.x.w , $ $ F %.k.j.v.x.x.x.v.x s 8 ; - P [ ..,.>.` P H 8 p j n Z.U.T.Y.U.U.U.P.P.P.P.P.P.!.!./././.W.P.P.",
"T.G.x.u , $ I J Q $.w y y u r u s 8 4 ; ; P [ ..o.>.>.` _ Q $.r g N.P.T.T.Y.R.U.A A P.P.U.P.P.P.W.W.W.W.W.P.",
"Y.G.x.u < S J T R Y 1 < < < , < : ; ; ; H Q _ ..+.,.8.q.q.| U 3 s j.Z.G.H.G.C N C N G.P.P.P.P.P.P.P.W.P.P.P.",
"L.S.x.u < D K / K J D S D D S S = = - H H P ]  .X.,.w.a.s.r.| U ~ 1.j v.v.c j k k m N P.Y.Y.Y.U.P.P.P.G.F.H.",
"K.B.v t < D K / / T T J J J J H J J T T T / (  .X.<.u.}.%X`.r.{ Q 8 e w r q 6 5 5 s n E.T.T.T.!.U.P.H.J.Z C ",
"Z N l t < D J / ] / / / / T / / / / / ( ( ( [  ...<.s.%X;X$Xf.w.} Q 3 2 2 , : X . 7 j Z.P.E.G.W.P.P.H.Z C C ",
"Z B l t < D J / [ [ ( [ / [ [ [ / ] [ [ ( ( [ [ ..@.y.|.$XOX}.d.i.5.4.&.Q H = = & 8 s x c v.c b.Z.P.L.L.C C ",
"A N l t , D J / [ [ [ [ [ [ [ [ [ [ [ [ [ ( [ [ [ ..;.u.d.}.OX#X#XXX X'.3.{ _ _ _ ! %.r r r s g A.G.I.A Z Z ",
"A N l t , I K / ( [ [ ( [ ( [ ( [ ( [ ( [ ( [ ( (  ...+.w.s.OX:X1X1X:X+Xi.8.8.0.9.O.Q 2 , * 4 r z.Z.J.C N N ",
"A N v q , S J / [ ( ( [ [ [ ( [ ( [ [ ( ( ( ( ( ( ( ^ ' O.y.`.#X;X;X=XoXa.q.0.e.e.o._ P G H H %.1.l.n c v v ",
"A N l t , S J / ( [ ( [ ( [ ( [ ( [ ( ( ( / / ( ( ( ( ( ..#.y.s.g.g.d.a.w.w.9.9.9.,.+.{ _ _ { ! =.r y y t t ",
"A B l q , S J / ( ( ( ( [ ( [ ( [ ( ( / ( / / / ( / / / ( ..@.w.w.w.w.w.w.9.8.8.8.,.,.,.8.o.o.} Q 3 < > > > ",
"A N l t , D J / ( ( ( ( ( ( ( ( / / / / ( / ( / ( / / / /  .X.>.>.>.<.<.8.8.8.8.8.8.8.8.0.0.>.{ H * & + & # ",
"A N l t , D J ( ( ( / ( ( ( / / / / ( ( / ( / ( / ( / / [ ....>.>.>.>.>.o.,.,.o.8.>.8.8.<.8.o.{ H : : : & : ",
"A N v t , D J / ( / / / / / / / / / / / / / / / / / / / / [ ..o.o.o.o.,.o.8.>.>.o.8.>.,.>.8.o.{ H ; * * * & ",
"K.B.l.t , S G K / / K ^ / L L T L T K / ^ L K / L L L L ^ ) [ [  .` ....X.o.o.>.o.>.>.>.>.>.o.{ ^ H - ; * * ",
"R.S.c u 1 = I K J J K K J T J J T J J K J P P P K K J K K K / L _ L / [ ` o.o.>.>.>.>.>.>.>.o.X.{ _ J F % % ",
"R.J.x.u < D Y T / W } R R / W R W / R W R W W W / W W W W W W / W W / | O.q.q.q.8.q.q.9.q.q.q.q.w.<.} Y ; # ",
"^.G.x.u 2 E ;.5.7.6.6.6.6.6.6.6.6.6.6.6.6.6.5.5.5.6.6.p.p.p.5.5.5.6.6.p.h.f.f.d.d.d.d.d.d.d.d.g.g.f.3.W - # ",
"^.G.z.r 3 =.n. X*X&X@X@X@X&X*X&X&X@X@X*XXX*X@X@X&X&X&X&X&X&X&X@X@X@X&X*X*X=X=X=X;X#X=X=X=X=X=X;X=X#X'.&., o ",
"R.G.l.t E =.].-X,X,X,X>X>X>X>X>X>X>X>X>X>X>X>X>X>X>X>X,X,X,X>X>X>X>X>X,X>X>X,X,X>X>X>X>X>X>X>X<X1X-X].-.3 & ",
"I.C.l.t < $.n.{.XX&X{.{.{.XXXX{..X X X X X X X X{.&X{.{.{.{.{.&X X.X.X.X X X X.X.X.X X X.X.X.X.X{.{.m.2.t t ",
"K.B.l.t < E &.*.:.:.:.:.:.:.:.:.4.4.4.4.4.4.4.4.:.:.:.:.:.:.:.:.:.4.4.4.-.:.4.4.4.4.4.4.4.:.:.:.:.-.2.k.z v ",
"D.B.c y < > 2 3 4 4 E 8 3 3 8 E 3 3 3 3 3 3 2 3 3 3 3 3 4 E 4 E 3 3 3 3 3 3 E 3 3 3 3 3 3 3 2 2 E 8 i x V.V ",
"V V n a t e e t q w q q 0 t e e e e e e q q e q q t 0 7 7 9 7 9 q e w q q q w w r r w w e e e 9 9 q d M D.I.",
"V V B M.v z l.l.l.l.l.l.l.l.l.l.z.z.z.z.l.l.l.l.l.l.l.z l k h h z x z.z.z.z.z.c.c.c.z.z.z.z.x.j.z l n B.H.I.",
"V D.B.V B.B.S.G.G.G.G.G.G.G.J.G.G.G.G.G.G.G.G.G.G.G.S.B.V B N N B.C.G.G.G.G.E.Q.Q.Q.E.G.G.G.G.C.N N S.F.H.U.",
"V V V D.K.K.L.I.R.U.Y.Y.Y.R.U.R.I.I.U.Y.Y.T.Y.^.~.Y.R.K.K.V D.K.K.R.Y.Y.!.^.~.(.(.(.^.Y.Y.U.I.K.K.Z D.H.U.U.",
"V V D.D.K.L.K.F.L.L.!.!.Y.U.L.L.D.K.I.!.Y.U.Y.^.^./.!.F.V K.F.L.U.Y.Y.U.Y.!.Y.!.~.^.!.!.U.K.K.D.Z Z D.L.U.U.",
"V D.D.K.L.F.D.D.D.F.H.!.!.L.H.D.D.D.H.L.P.U.P.W././.W.F.D.D.H.H.P.P.U.U.P.P.U.U.P.U.U.I.H.D.C C V C D.H.P.U.",
"V V D.K.F.D.D.V D.D.H.H.P.H.H.F.D.D.H.L.H.P.P.!.).).W.H.D.F.J.L.P.H.H.H.H.P.P.U.P.P.H.H.D.D.C C Z D.F.F.F.H.",
"V V V D.D.D.D.V V D.D.L.H.U.U.H.L.D.D.D.F.H.P.!.!.).W.H.L.L.W.W.H.F.D.F.H.P.P.W.I.H.F.D.Z C C C F.F.F.F.D.D.",
"V V V D.D.V V V S.V V D.L.L.!.U.P.F.D.D.D.H.P.P.P.!.L.P.P.P.P.P.H.D.C D.H.P.W.P.P.F.F.C C C C S.H.H.H.D.C C ",
"V V V V V V V V V V V D.L.U.L.L.U.F.D.C Z H.P.P.P.U.!.U.W.W.W.P.F.D.C S.F.W.P.W.P.F.S.C V C C D.H.P.H.D.V V "
};
