/* XPM */
static char *mer17445618641744562080[] = {
/* columns rows colors chars-per-pixel */
"54 54 212 2 ",
"   c #E6BF7B",
".  c #E9BF77",
"X  c #E6C17D",
"o  c #E9C37E",
"O  c #EEC87F",
"+  c #F3CA7E",
"@  c #0D569E",
"#  c #0F5AA2",
"$  c #115CA5",
"%  c #1363AB",
"&  c #1367AC",
"*  c #166BB3",
"=  c #186EB7",
"-  c #1674BD",
";  c #1A75BD",
":  c #1B79BF",
">  c #237ABC",
",  c #1D7DC2",
"<  c #1679C3",
"1  c #217DC2",
"2  c #2D81BC",
"3  c #3282BB",
"4  c #4B8CB4",
"5  c #4A93BB",
"6  c #5894B3",
"7  c #6399B1",
"8  c #6596AD",
"9  c #68A4B6",
"0  c #64A7BC",
"q  c #6BAABB",
"w  c #68A5B6",
"e  c #79ABB5",
"r  c #7CA9AF",
"t  c #1E81C5",
"y  c #1D85C9",
"u  c #1E89CC",
"i  c #1C8DD2",
"p  c #1F92D4",
"a  c #2283C5",
"s  c #2086C8",
"d  c #228BCB",
"f  c #2A8BCA",
"g  c #2B86C6",
"h  c #2490CF",
"j  c #2C95CE",
"k  c #3096CD",
"l  c #3E96CE",
"z  c #3A9ACB",
"x  c #3598CC",
"c  c #2593D2",
"v  c #2995D2",
"b  c #2C99D5",
"n  c #349AD3",
"m  c #359AD6",
"M  c #208FD1",
"N  c #35A0D9",
"B  c #3CA5DB",
"V  c #3DA0CF",
"C  c #3CA7E0",
"Z  c #499AC4",
"A  c #429BD4",
"S  c #509FC2",
"D  c #4DA2C8",
"F  c #52A2C3",
"G  c #54A6CC",
"H  c #43A5DC",
"J  c #42A9DD",
"K  c #49ACDE",
"L  c #4AA6D4",
"P  c #59ABD5",
"I  c #5AB1DA",
"U  c #6AABC1",
"Y  c #76B6CA",
"T  c #61B5DF",
"R  c #64B8DF",
"E  c #47ACE1",
"W  c #4CB1E2",
"Q  c #56B8E5",
"!  c #5ABAE6",
"~  c #5DBDEA",
"^  c #56B5E5",
"/  c #63BBE4",
"(  c #77C0D9",
")  c #64C2EB",
"_  c #6BC7EC",
"`  c #73CAED",
"'  c #7CCEEC",
"]  c #74C4E2",
"[  c #79CFF2",
"{  c #76D0F2",
"}  c #7CD3F3",
"|  c #75CEEE",
" . c #AAB49A",
".. c #B3BC9D",
"X. c #9BBAAE",
"o. c #99B6A8",
"O. c #83B2B2",
"+. c #89B5B7",
"@. c #91BCBA",
"#. c #87ACAB",
"$. c #A6BBA6",
"%. c #AABDA4",
"&. c #A4BAA6",
"*. c #C6BF93",
"=. c #B7C19F",
"-. c #ACC0A8",
";. c #BAC3A3",
":. c #AAC5B4",
">. c #BACCB3",
",. c #BDD3BB",
"<. c #DBC48A",
"1. c #CAC699",
"2. c #DBCC94",
"3. c #D5CC9A",
"4. c #D9CF9C",
"5. c #D7D09E",
"6. c #DAD19E",
"7. c #DED097",
"8. c #E4C584",
"9. c #E9C682",
"0. c #ECCB85",
"q. c #E3CB8D",
"w. c #ECCE89",
"e. c #E6C886",
"r. c #F2CE83",
"t. c #EED38D",
"y. c #FBD484",
"u. c #F1D38C",
"i. c #F9D689",
"p. c #E2CF94",
"a. c #E4D396",
"s. c #ECD492",
"d. c #E4D499",
"f. c #EAD599",
"g. c #EED99E",
"h. c #EFD895",
"j. c #F1D693",
"k. c #F4D895",
"l. c #F3D99B",
"z. c #FBDB96",
"x. c #C6CAA5",
"c. c #CCCBA2",
"v. c #C9CEA9",
"b. c #C5CAA7",
"n. c #D3CEA2",
"m. c #CCD4AE",
"M. c #D5D2A4",
"N. c #DCD5A3",
"B. c #D2D6AD",
"V. c #D5D8AD",
"C. c #DCD9A9",
"Z. c #C3D3B4",
"A. c #CBD5B1",
"S. c #C2D6BC",
"D. c #C4D9BD",
"F. c #CDD9BB",
"G. c #CDD8B2",
"H. c #D2D8B1",
"J. c #D1DCBB",
"K. c #D7DDBA",
"L. c #E2D9A5",
"P. c #EDDBA3",
"I. c #E3DAAA",
"U. c #F3DDA3",
"Y. c #81B8C2",
"T. c #94C6CA",
"R. c #86C5D7",
"E. c #9BD4DB",
"W. c #8EC4CB",
"Q. c #A7CEC7",
"!. c #A5D2CE",
"~. c #ACD5CD",
"^. c #AFD2C6",
"/. c #B3D6CA",
"(. c #B5D8CC",
"). c #BADBCD",
"_. c #B4D5C6",
"`. c #A4D4D3",
"'. c #A9D6D3",
"]. c #AED9D4",
"[. c #A3D7D9",
"{. c #A7DADA",
"}. c #B4DCD4",
"|. c #BADDD2",
" X c #B1D9D4",
".X c #B7E1DD",
"XX c #85CCE3",
"oX c #8DD3E6",
"OX c #86D4EE",
"+X c #8BD5EC",
"@X c #8DD9EE",
"#X c #95D5E3",
"$X c #99D6E1",
"%X c #9CD9E2",
"&X c #93DBED",
"*X c #9BDDED",
"=X c #93D7E8",
"-X c #84D6F3",
";X c #84D9F6",
":X c #8BDAF3",
">X c #8CDDF9",
",X c #85D8F6",
"<X c #92DEF4",
"1X c #95DFF4",
"2X c #A2DEEA",
"3X c #A8DDE2",
"4X c #9BE1F3",
"5X c #94E2FB",
"6X c #9DE0EF",
"7X c #A2E0EB",
"8X c #C4DAC2",
"9X c #CADFC8",
/* pixels */
"X X       9.0.t.t.j.u.t.t.t.t.t.t.t.t.t.t.t.t.h.g.U.U.U.U.j.0.8.9.0.w.j.j.t.w.0.      X 9.w.u.w.9.9.        ",
"X       9.9.w.t.h.u.u.u.t.t.t.t.t.t.t.s.t.t.t.h.l.l.U.U.l.j.0.X 9.0.w.s.j.u.w.9.X     X 9.0.u.0.9.9.    9.  ",
". X X 9.0.w.s.j.h.u.t.t.t.t.u.t.q.t.t.t.h.t.t.t.k.l.l.l.l.j.9.9.9.9.0.u.w.u.w.w.0.X X X 9.9.0.0.9.9.9.      ",
". . O r.j.j.k.k.k.u.u.t.u.t.t.O O O t.t.t.t.t.h.h.h.h.j.j.w.9.    9.9.9.w.t.t.w.0.0.X   9.9.9.9.9.0.9.9.    ",
"  8.q.f.P.U.U.P.g.h.t.u.u.w.0.9.X e.w.t.t.t.t.t.t.s.t.j.w.w.9.9..   9.9.w.u.j.u.u.0.9.X   X 9.9.w.w.0.9.9.  ",
"x.x.v.A.J.8XJ.J.C.d.t.u.u.u.u.0.O 0.w.t.t.h.k.h.j.u.t.u.t.w.0.9.9.9.9.0.u.j.j.j.u.u.0.9.9.9.9.9.w.t.t.0.9.9.",
"Q.Q.'.'.].{.{.].,.C.t.u.u.u.u.0.w.w.t.t.h.h.k.h.j.t.u.s.j.t.w.w.9.0.0.r.j.j.j.i.u.u.0.w.w.w.w.w.u.u.t.t.w.w.",
"OXOX@X@X@X:X:X=X~.G.a.s.t.t.s.t.t.t.t.t.j.h.U.k.j.u.t.u.w.w.j.w.s.s.j.f.P.U.P.f.s.s.t.t.w.u.u.u.t.t.t.w.u.w.",
"-X;X;X,X:X;X>X:X%X).G.B.A.B.N.a.u.r.0.r.t.h.l.h.j.t.u.0.0.0.u.u.f.6.B.H.G.J.F.A.B.M.2.w.r.u.u.t.w.w.w.w.w.w.",
"-X;X,X>X<X5X>X>X6X3X X].]./.S.N.u.r.0.0.0.w.j.j.j.w.w.9.O r.r.t.6.S.~.'.'.{.[.[.~.>.3.9.+ r.u.w.0.9.9.9.9.9.",
"-X:X:X1X4X4X4X4X2X2X2X2X%X2X/.m.a.w.9.X 9.w.j.t.s.t.w.e.8.e.w.a.m.~.#X+X=X#X#X#XE.Q.x.<.e.q.a.w.9.9.9.    9.",
":X:X<X1X4X7X3X}.}.}.}. X X X/.8XG.5.q.9.0.w.w.u.u.u.p.3.1.x.v.Z./.E.OXoX$X`.`.`.!.^.>.b.v.v.v.M.q.9.      . ",
"1X<X1X5X4X3X8XG.V.C.V.V.B.G.S./.~.,.M.w.r.u.w.u.u.t.N.>.!.!.`.E.#XOXOX#X_.A.B.B.m.,.^.Q.E.!.!.>.n.0.9.o .   ",
"1X1X5X1X7X9XB.f.s.a.a.f.s.d.m.].E.(.m.a.u.u.s.u.t.a.A.~.oXOXoXoXoX-X=X'.A.d.w.u.a.m.~.#X+X@XE.!.m.p.w.9.9.  ",
"5X4X7X3X}.F.d.u.s.N.M.6.q.w.n.,.~.~.D.G.L.a.h.a.N.G._.#X-XOX#X`.`.`.~.Z.6.u.i.r.u.C.8X'.[.E.`.^.,.m.n.q.9.o ",
"5X4X3X9XH.L.j.j.d.D.(.Z.3.e.q.4.G.D.(./.8XI.P.L.D.~.#X@X-X#X/.Z.m.A.B.N.a.u.i.y.u.d.C.F.F.G.A.,./.~.Z.n.w.r.",
"1X2X}.H.d.j.w.d.Z.'.#XQ.x.8.r.r.a.Z.!.#X X8XI.9X X#XOX,X=X'.A.p.j.s.s.f.s.s.s.s.p.f.P.P.h.j.d.A.'.$X'.m.a.t.",
" X9X8XL.j.p.1.%.@.( R T.x.0.+ + u.m.T.] XX X8X8X%XOX+X#X~.Z.n.w.r.r.u.s.n.B.A.A.B.C.P.k.z.i.j.G.{.@X$X(.Z.m.",
"H.H.L.l.h.c.X.U G L K Y ..w.y.y.t.b.Y.I / Y.E.$X+XOX$X/.m.n.e.9.r.r.w.I.S.~.[.E.~.8XL.j.i.i.s.B.{.:X:X%X'.'.",
"s.s.l.l.L.:.U l c c l 0 $.3.t.t.2.%.q L E / OX-X,X+X'.A.p.w.9.9.9.w.p.A.Q.oXOXOXXX!.v.p.w.u.s.B.}.&X:X@X@X+X",
"i.u.a.c.:.Y.G v i i d Z r  .....$.O.F n E ~ [ -X,X@X'.B.s.r.r.9.e.6.A.!.Y.T ^ ^ T Y +. .*.e.s.L.D.].%X&X:X;X",
"y.u.1.X.U D m v i y 1 > 4 6 7 9 0 S z m E / [ ,X>X<X XB.s.r.r.0.4.8X!.Y.P A l k l Z 4 8 #.*.s.k.L.G.(.%X:X;X",
"u.3.%.q l v v c s 1 1 > : > g f v v b m E / -X:X<X*X|.V.f.r.u.p.A.'.XXT A 1 ; 1 < 1 1 > 8 &.*.k.t.7.G.`.oX{ ",
"..$.+.F c i i i 1 1 = < - < y u c b m E ^ ` OX&X3X}.8XL.j.f.L.A. XY.T H 1 < ; < < < < 1 4 #.%.*.t.t.v.T.] ) ",
"U 0 D n c i s , , ; ; , , u u i i m E / / -X<X3X9X9XI.f.s.N.D.'.R.P Z g 1 ; < , y u y h j D w o.1.a.;.Y.K C ",
"k k b b v s , , ; ; ; 1 s h c c b E ~ [ ,X:X4X.X9XP.k.z.s.B.Q.XXT l 1 ; ; , 1 d h h h h j k D e =.1.-.q V p ",
"c p c p h s , , ; : t s d c b N E ^ / } >X>X4X.XK.U.z.i.f.v.W.T H g : ; ; , s d c h c h 3 F w O.$.$.O.D j p ",
"c c c c M s 1 ; : t d d M c m W ~ ~ ` -X,X>X4X.XK.U.U.z.t...e Z d 2 ; : , d h c h h u 2 5 r $.$.O.q D V c p ",
"c v b b v h 1 , t s h c h b J ! ` { } -X-X<X2X9XK.P.l.h.2. .6 1 : - : t u h h h h u t t 6  .=.-.q V b c c h ",
"c v b B H m f s y u h b N J ^ ) [ } -X-X=X[./.8XI.P.d.1.%.r 4 > - : t d h j h h d t - ; 4 #.-.O.F b p u h d ",
"c v N W ! E m d u M v N K ! _ ` { -X,X<X[.,.v.p.l.s.c.X.q 5 > > : t u h h h d y t : - ; 3 6 0 F V b h t t t ",
"h b B Q ) Q H m c v b B ! ` { { } -X>X*X Xx.q.9.w.3.%.q l s 1 > : s h v v h u t : ; ; : t j k j b c a t ; : ",
"M v m W ! Q W J B B B Q ) { { } ;X;X>X4X|.M.9.8.*.$.O.Z v y < < 1 d h v c c s , < < , , , y u u s s a : ; = ",
"c b m N J W Q ~ ~ ~ ! ) _ { } >X:X5X5X4X|.C.w.*.o.q D x M u < , , s M v v c d , ; ; s s s y , < , ; , ; ; ; ",
"c c c c b B Q _ | | ` | ' ' ;X<X6X4X4X7X).V.2.%.q z v c v s , , 1 d v v c c s 1 1 , s M d 1 , ; ; > ; ; ; ; ",
"c c c c h N W ~ ] E.!.!.!.!.'.~.(.).).)._.>.%.O.F c p c c d s t s h c c v c h s , 1 s d s 1 1 , ; ; = = ; ; ",
"c c c h c b N K ( Q.v.V.V.m.n.n.5.5.C.V.;.@.q S x c c c c c d d i h c v v M h h d u t t y y s a , = ; ; ; ; ",
"c c c c c c c x 0 $.3.q.a.7.2.<.<.8.q.3.$.q l v v c c c c c c c h v c c c v c c h u t : t d d d , , ; ; ; ; ",
"d d d c c c p j S r -.=.=.=.=. . . ...%.O.S v i c c c c c c c b h h h d h c v c h h y t t y s s s , , , t 1 ",
"a a d d c c p c z F 0 w w w w w 7 9 9 0 F l c c c c c c c c c c h 1 , s h M v c h h h d t t t a s d d d d d ",
": , a d d c c c h j k k k k k k v k k v v j v c v h h h c c v c d , : t y h h j v v c p d t : t s d h h h h ",
"; ; , a d d d d u h p p p p p p p p c p c c c c d d d h c v v c d s a t y u h h c c c c h y t t s d d d d d ",
"; : : , , , , 1 y u h c c p p c c c c c c c c d d t y d c v v c h d d a a t t h v c v c h d 2 u a t t : 1 1 ",
": : > ; ; < ; ; t s h h c h c c c M M c c c c s , : t u h h c v v v h s t : t d h c c c c h h y , : ; ; ; : ",
"a 2 < : ; = ; ; : a s y u u u d s d s s d d s 1 , ; , 1 d d h c c v c M t t t y s y y t d u d y : ; ; ; - - ",
"d s y : ; ; = ; : : t t t t t t 1 1 1 , 1 , , 1 ; ; ; , , y d c v c c h h u t t t t t t t t t t ; ; ; ; ; : ",
"h h s t : ; ; : : ; : : * t ; ; ; < ; ; < ; < ; ; ; ; ; : t y h c h c c c h t t t - - t - t : - ; ; ; ; ; ; ",
"u s s y t t : t : : : * : : * ; ; ; ; ; ; ; ; ; ; ; ; ; : : t d h h p c h h d t t t t t t - : - ; ; ; ; ; ; ",
"t t t y d d d y t t ; - ; ; - - ; - - ; ; ; ; ; ; ; ; = ; < < t y h c c c h h h h u u u t t & t & t : - : : ",
"; ; t y h h h h d t : - : ; ; : : : ; ; ; ; ; = ; ; ; ; ; ; - : t u u u h h h h p c h h t t t t t & - : * - ",
"& * ; 2 s d d d s y t t : t t t t t t t : ; * * * * = = ; ; ; ; : t t y y u u h c c c c h t t t t t t & * & ",
"% & * ; t t t a t y y s u s s s y d y y : & % % % % * = ; ; ; ; : t t t t t t h c c c c h u d d t t t & & $ ",
"$ $ % = ; : : , t y d h h h h h h h h d t & $ # # % & * ; : - - - t t & t t t t h c c c h h h u h h t * $ @ ",
"$ $ % * = ; : : t d h h h h h j c c c h : & # @ @ # % * = ; ; : - & t t * t t u p h c c h h h p j h t & $ @ "
};
