/* XPM */
static char *sand17445619171744562080[] = {
/* columns rows colors chars-per-pixel */
"54 54 246 2 ",
"   c #E6C17D",
".  c #E6C07C",
"X  c #E5C07B",
"o  c #E6C17C",
"O  c #E8C581",
"+  c #ECCC87",
"@  c #EED18B",
"#  c #EFD28D",
"$  c #F0D28D",
"%  c #F0D38E",
"&  c #EFD28C",
"*  c #EFD38E",
"=  c #F0D593",
"-  c #F2D99A",
";  c #F3DCA0",
":  c #F4DDA2",
">  c #F4DEA3",
",  c #F3DB9F",
"<  c #EFD395",
"1  c #EAC988",
"2  c #E7C480",
"3  c #E9C681",
"4  c #ECCC88",
"5  c #F0D48E",
"6  c #EFD18C",
"7  c #EDCC88",
"8  c #E9C682",
"9  c #E5BF7C",
"0  c #E5C07C",
"q  c #E7C27E",
"w  c #EAC783",
"e  c #EDCE89",
"r  c #EDCD89",
"t  c #E9C782",
"y  c #E6C27E",
"u  c #E7C380",
"i  c #EAC884",
"p  c #F2D899",
"a  c #F3DB9E",
"s  c #F4DCA0",
"d  c #F4DDA0",
"f  c #F3DA9D",
"g  c #EFD394",
"h  c #EAC987",
"j  c #EBCB86",
"k  c #EED08B",
"l  c #EDCD88",
"z  c #E7C37F",
"x  c #EECF8A",
"c  c #E6C07B",
"v  c #E8C684",
"b  c #EACA88",
"n  c #ECCE8C",
"m  c #EFD290",
"M  c #F0D492",
"N  c #F0D592",
"B  c #F0D38F",
"V  c #F0D491",
"C  c #F1D796",
"Z  c #F2DA9C",
"A  c #F3DA9C",
"S  c #F2D898",
"D  c #EED190",
"F  c #EAC886",
"G  c #EAC883",
"H  c #EECE89",
"J  c #ECCA86",
"K  c #E8C480",
"L  c #EAC984",
"P  c #ECCB87",
"I  c #ECCB86",
"U  c #E5BF7A",
"Y  c #E8C683",
"T  c #ECCC8C",
"R  c #EED294",
"E  c #F0D698",
"W  c #EFD28E",
"Q  c #EBCA85",
"!  c #F0D694",
"~  c #F1D795",
"^  c #EDCE8C",
"/  c #E9C784",
"(  c #EBCA86",
")  c #EFD18B",
"_  c #EBCB87",
"`  c #E7C37E",
"'  c #EAC986",
"]  c #EED192",
"[  c #F1D99B",
"{  c #F3DC9F",
"}  c #ECCD88",
"|  c #E9C783",
" . c #E8C580",
".. c #F0D48F",
"X. c #EFD490",
"o. c #ECCD89",
"O. c #F0D28E",
"+. c #EFD08B",
"@. c #EDCC87",
"#. c #E7C47F",
"$. c #EECF8B",
"%. c #E9C57F",
"&. c #EAC782",
"*. c #ECCC89",
"=. c #EFD392",
"-. c #F3DB9C",
";. c #F3D99A",
":. c #F2D796",
">. c #EAC985",
",. c #F0D490",
"<. c #F1D592",
"1. c #F1D593",
"2. c #EFD38D",
"3. c #EBCB88",
"4. c #EFD18E",
"5. c #F1D492",
"6. c #F2D592",
"7. c #F1D490",
"8. c #E8C681",
"9. c #EDCF8A",
"0. c #E9C883",
"q. c #EDCC86",
"w. c #EFD390",
"e. c #F1D694",
"r. c #F1D794",
"t. c #F1D797",
"y. c #EECE8A",
"u. c #EED08E",
"i. c #F1D595",
"p. c #F2D797",
"a. c #EDCE8A",
"s. c #EED18C",
"d. c #EFD18D",
"f. c #F1D899",
"g. c #F3D899",
"h. c #EED08C",
"j. c #EFD48E",
"k. c #F0D595",
"l. c #F0D38D",
"z. c #F0D590",
"x. c #EFD48F",
"c. c #EDCF8B",
"v. c #EACA85",
"b. c #F1D897",
"n. c #F0D693",
"m. c #EFD38F",
"M. c #EBC985",
"N. c #EED28D",
"B. c #ECCE89",
"V. c #F2D998",
"C. c #F0D794",
"Z. c #EACA86",
"A. c #E9C884",
"S. c #F0D18C",
"D. c #E8C47F",
"F. c #E8C682",
"G. c #F1D693",
"H. c #F1D793",
"J. c #F0D691",
"K. c #EDCF89",
"L. c #EDCE88",
"P. c #F0D591",
"I. c #F1D692",
"U. c #EED28C",
"Y. c #F2D896",
"T. c #F3D999",
"R. c #F0D28C",
"E. c #F3D998",
"W. c #F4DB9B",
"Q. c #F0D795",
"!. c #F3DA99",
"~. c #F1D591",
"^. c #F2DA9B",
"/. c #F2D793",
"(. c #F2DB9D",
"). c #F1D491",
"_. c #F2D999",
"`. c #ECCE8A",
"'. c #EDD08B",
"]. c #F1D798",
"[. c #F0D390",
"{. c #EDD18B",
"}. c #EDD08A",
"|. c #EDCF8C",
" X c #F0D494",
".X c #F1D898",
"XX c #F0D594",
"oX c #F0D695",
"OX c #ECCE88",
"+X c #ECCD87",
"@X c #EED290",
"#X c #F1D695",
"$X c #F0D797",
"%X c #F1D696",
"&X c #EBCB85",
"*X c #EED18A",
"=X c #ECCD86",
"-X c #EACB84",
";X c #EAC983",
":X c #E6C27D",
">X c #E9C882",
",X c #EFD590",
"<X c #F2D99B",
"1X c #EED08A",
"2X c #EACA84",
"3X c #E8C680",
"4X c #E8C57E",
"5X c #F1D38E",
"6X c #E7C37D",
"7X c #F3DA9A",
"8X c #E9C781",
"9X c #E7C37C",
"0X c #E6C17A",
"qX c #E9C680",
"wX c #F4DB9C",
"eX c #E6C27C",
"rX c #E5C07A",
"tX c #EED18E",
"yX c #E8C57F",
"uX c #EED18D",
"iX c #EBCD87",
"pX c #EED38E",
"aX c #EECF89",
"sX c #EBCA84",
"dX c #F2D897",
"fX c #EBC984",
"gX c #F1D590",
"hX c #F0D48D",
"jX c #EFD08C",
"kX c #E7C27D",
"lX c #E8C37F",
"zX c #E9C580",
"xX c #E8C37E",
"cX c #EECE8C",
"vX c #E9C683",
"bX c #F2D798",
"nX c #EFD191",
"mX c #EAC885",
"MX c #F0D58F",
"NX c #F3D99B",
"BX c #EBCA88",
"VX c #EFD393",
"CX c #ECCC8A",
"ZX c #EECF8C",
"AX c #E5BF7B",
"SX c white",
/* pixels */
"    . X o O + @ # # # # # # $ % % % $ # # & * = - ; : > , < 1 2 3 4 # 5 % 6 7 8   9 0 q w e 6 r t   0 .     ",
"      y u i r # * * # # # # # 6 6 6 # # # & * = p a s d f g h u O j k # % 6 l w z   . q 8 7 x l w z         ",
"c   u v b n m M N B # # # # k e l e k # # & # V C - Z A S D F z z G + x 6 6 H J t K y y K L P I L 8 K q   . ",
"U   Y T R E p p C V W # # 6 e Q G Q e 6 # # $ B N ! ~ ~ M ^ / y   z t ( H 6 ) x + i K   y K 8 L j _ i K   0 ",
"c ` ' ] [ , { f p N * # # 6 } |  .| } 6 % % % B ..X.X...# o.| z   y 2 i e $ % O.+.@.t z   y #.G } $.4 | z   ",
"%.&.*.=.- -.-.;.:.V W # # 6 e >.| >.e # ,.<.1.N ,.* * 2.6 e ( w 3 O | 3.4.5.6.7.$ x I w 8 8.t ( 9.# x j 0.8 ",
"q.l $.w.e.~ ~ r.<...# # # 6 k e } e k * N t.p t.N * # # # k y.l + + o.u.i.p p.<.O.+.x r 7 + } a.s.# 6 9.r } ",
"6 6 6 d.# * ....5 * # # W W # # 6 s.s.# M f.Z p = * 6 6 6 6 6 6 6 6 # M p A g.1.O.6 +.+.+.6 6 s.6 s.s.h.k k ",
"..% 6 e } e @ 2.j.* * X.N = N ,.* @ e o.u.k.f.t.N # k e } e +.$ l.# * N p.p p.<.$ +.H r x 6 # s.a.} 4 } } } ",
"z.x.c.( | v.9.* x.j.x.= t.p b.n.m.9.v.0._ u.M <.,.d.e M.| Q e # l.# # B M 1.N ,.# e Q G ( 9.s.9.( t 8 8 t | ",
"x.N.o.0.O 0.B.* x.x.X.! - Z - ~ m.B.0.O | o.# B % 6 l w  .| } 6 * * * * * * * * 6 } |  .G r k e i 2 q y q y ",
"B.} j i | Q 9.* x.* x.n.b.- V.C.x.9.Z.A.v.e ) $ $ S.H M.| >.e # ,.N = V m.# # # 6 e >.| Q 9.6 x j 8 D.y . 0 ",
"F.| i Q + a.s.# * * * ,.G.r.H.J.x.N.c.B.9.k 6 $ $ $ +.e } e k # N t.p C V # & # # k e } e s.2.& x + G K   9 ",
"q 2 | 4 h.# # # # # # 2.* % j.x.x.x.* * * % % O.$ $ $ 6 6 6 6 W = p Z p = W & $ $ $ # # # % 5 % $ +.+ t z   ",
"F.| ( 9.# * # # # # # k K.L.9.s.* x.x.x.P.<.1.5.B $ $ $ l.$ # % N t.p t.M W & & $ B <.G.I.,.5 % % $ H ( | 8 ",
"o.B.c.U.* * # & # # 6 e Q G Q e # % * m.N t.p p.5.O.$ $ $ $ $ % ,.N = M m.# & & O.<.Y.T.Y.<.% # # & k e } 4 ",
"* * m.x.X.x.m.* * * 6 } |  .w l 6 $ # * = p Z p 1.O.R.$ $ $ S.6 # # W W # # # & * 1.E.W.E.1.* # # W # # 6 s.",
"....P.n.Q.~ e.1.N B # e >.| M.e 6 $ # W M t.p t.M O.$ $ $ +.H l e k 6 # # # # # % <.Y.!.Y.~.* m.V = N ,.* # ",
"l.B <.t.- Z ^.- C M # k e } e +.S.$ # # m.M = M B # # $ 6 e M.w M.e 6 $ # # # $ % 7.I./.<.B * V C p C N * # ",
"R.% 1.S (.{ , f S N W 6 6 6 # $ O.O.# # # W W W # # # 2.6 } |  .w l 6 % # # # 6 6 $ % ..5 2.* = f.Z f.= * & ",
"l.B N t.- Z ^.- C V W # # * ,.<.1.).B # # & & & # # # * # e Q | Q e R.% l.# k e l H ) 2.2.2.* N t.p t.N m.2.",
"....P.n.Q.~ e.1.V B # # # % N t.p C 5.O.R.R.$ & # # # % 2.s.e } e ) l.% % 6 e Q G Q e & * * m.X.N = N ,.x.x.",
"* * m.x.X.x.m.* W # # & 6 # = f.Z _.1.% $ $ $ $ W W * % 5 2.# 6 # % 5 ..% 6 } t K t } 6 * x.x.m.* * * * * * ",
"B.`.'.N.* * # # # # # @ x $.w.].Z _.G.B $ $ % B [.V ,...% % % * ..P.P.P...# } t 2 t 4 6 % % * * 2.# & s.@ {.",
"t A.j }.2.5 2.# # # # x } + |. X.Xb.n.x.* * m.V XXoX= ,.% l.* x.P.! oXe.P.2.e L 8.G l 6 % % % % % 2.@ K.OX+X",
"  z 0.e 2.5 % # # # 6 e Q L 4 @X#Xe.N x.j.j.x.= $X].%XV % $ * x.= $X.XC I.% x &XL Q H S.$ $ $ % 5 l.*X=X-X;X",
"9 :X8 l l.5 % # # # 6 } >X .L |.V N ,.x.j.x.,XC._.<XS <.O.# 2.x.n.f.<Xp G.% 1Xl + l x $ l.% % % 5 2.K.2X3X4X",
"0 y 8 l $ 5X% $ $ O.6 + 3X6X3 r O.,.B * * j.z.~ 7X-.T.1.O.& & m.! - f - e.% ) 1Xx k 6 $ % % 5 5 5 & +X8X9X0X",
". q 8 + +.$ $ $ $ % 6 + 3X6XqX@.6 % % # # N.m.G.T.wXT.G.* & & * 1.- f ;.1.% R.S.S.$ $ $ $ l.2.l.* 6 + qXeXrX",
". y K i + y.+.# % * # e L 8XL L.S.$ $ # k 9.`.tXe.E.Y.N * # # % <.:.p :.).O.$ $ $ $ $ $ +.9.e 9.s.s.e L 8.yX",
"    q K 8 Q e 6 * * 2.s.9.OXe +.R.$ $ 6 e Q A._ uXN <.z.m.* l.% B <.1.V B # # # # $ $ 6 e Q G Q e s.s.9.} iX",
"      y 2 G l 6 * x.X.x.* * # # $ $ % 6 l w O 0.o.# ..x.x.* # 6 d.# W W # # # # # # 2.6 } |  .| } 6 * * pXpX",
".   q  .| j e # ,.= ! n.P.x.x.% % % % # a.Q | L l s.2.* * s.a.l e k 6 # # 2.2.2.2.2.# 6 e M.w M.e d.% ....z.",
"0    .L L.1X) O.<.t.p t.N x.* j.......* s.a.} e x 6 # % # a.Q w M.e 6 2.% % % % % 2.# 6 k e l H +.$ % % ....",
"  z t + @ & R.O.1.S <XS = * # # * * x.x.* # 6 d.# W % % 6 l w  .| } 6 % 5 5 5 5 5 % * * # d.6 S.$ $ # 6 6 s.",
"8 t L j L.aX) $ 5.C S C V # k 9.B.c.uX* * * % ,.N = N ,.# e Q | v.e # % % % 5 5 5 z.<.1.N ,.% l.l.$ +.a.} + ",
"} + Q G &.sXH $ [.M N M B d.e Q A.Z.9.# * l.% <.t.p b.n.m.s.e } e k # * * 2.l.l...I.dXp p.<.% $ % # a.( | 8 ",
"# k + t D.&.l 6 % % W % % 6 l w  .| } 6 $ $ % 1.p Z - ! X.2.# 6 6 s.6 6 # # 2.l...e.T.A p 1.W & & k + t z   ",
"..* 9.Q t fXe S.$ $ # $ $ S.H M.| >.e 6 # $ O.5.t.p b.n.x.j.% # k e } e k # 2.l...I.dXg.p.<.# k e + i K   0 ",
"z.x.N.9.B.e +.$ $ $ # $ $ $ +.e } e k 6 # $ $ B M = N z...5 % # e Q | >.e 6 * 5 5 gX<.1.<.,.# e Q 8 2 q   . ",
"pX* pXpX* * $ $ # 6 6 6 # $ $ 6 6 # # W O.$ $ $ W * * 5 5 5 % 6 l w  .| } 6 % 5 5 5 % % % % 6 l G #.y       ",
"B.`.'.# ....% # k e } e k # l.% % ,.N = M B $ $ & # # % 5 5 % $ H Q | v.a.# 5 5 5 l.l.$ $ $ S.y.( t K q   . ",
"t A._ k % ..% 6 e M.| M.e 6 l.% ..I.b.p t.5.O.R.& # # 2.% % % $ +.e } a.s.* j.5 hX5 * * % $ $ jXx 4 i K   0 ",
"  z t + +.$ % 6 } |  .| } 6 l.l...G._.Z p 1.O.R.# # # 6 6 6 6 6 6 6 6 # * x.x.......x.x.* % $ $ 6 $._ 8 z   ",
"0   D.G P aX6 6 a.Q | v.a.# % 5 ..I.dXp p.5.O.$ $ 6 k e + + + @.H +.# * * x.z.G.e.G.P.x.j.5 % 6 x } j L 0.| ",
".   kXlX3 Q K.6 s.e } a.s.* 5 % % 7.<.1.5.B $ $ $ 6 e sX3 zXzX3 fXH # % 2.* N dX_.dXG...5 ..* '.j i L _ B.`.",
"        ` t + k d.6 6 # * * * # 6 $ $ O.O.$ $ % % $ l &.kXc o xX&.l 6 $ # * 1.p A T.e...5 j.N.} | 2 | o.N.x.",
"    q D.3 G Q 4 9.s.* * x.* s.a.l H +.R.$ $ $ 7.<.5.cXvXo c kX3 Q H # l.# W M C p dXI.5 & k o.L 2 y 8 B.* z.",
". y  .L I j i 0.( 9.# 5 * # a.Q w M.H R.$ $ O.<.dXbXnXmXq ` t P e 6 # l.# # B M 1.<.7.% x j | 2   y 8 o.# MX",
". y 8 P a.+ 8 #.8 + k # * 6 } |  .w @.+.& # * G.- NXg BXK 3 + k 6 6 6 6 # # # W W O.$ +.7 | z     z | 4 k # ",
". y O >.P >.K y 2 i + 9.6 6 e Q | G Q 7 e @ * N dXS VXCXi Q 9.# s.a.} e k # # # 6 k H + i K   y K t L j + 4 ",
"    z O 8 O `   q K t ( x 6 6 9.4 Q G w ( 9.* P.N N m ZXe 9.s.6 a.Q 0.Q e 6 2.# 6 e ( t K q y K L + j L t 8 ",
"      y y y         z w l 6 % # k + 8 2 | B.* x.m.* # d.6 # # 6 } t 2 t 4 6 * * 6 } | z   . q 8 4 x 4 | z   ",
"      . . .     . 0   8 7 6 % 5 # 4 8.q F.o.pXx.2.& # # * % * 6 + O q O + s.% % s.4 8   9 0 y | e s.} 8   AX"
};
