/* XPM */
static char *tralala17445619171744562080[] = {
/* columns rows colors chars-per-pixel */
"54 54 218 2 ",
"   c #272B3D",
".  c #4D333A",
"X  c #53393C",
"o  c #5A433F",
"O  c #3D3951",
"+  c #2D3F6A",
"@  c #563A40",
"#  c #5B3D43",
"$  c #553741",
"%  c #443E56",
"&  c #4A3948",
"*  c #394368",
"=  c #2C4775",
"-  c #344772",
";  c #5E4244",
":  c #59444B",
">  c #554454",
",  c #46445E",
"<  c #614346",
"1  c #644549",
"2  c #6A4B4C",
"3  c #67484A",
"4  c #6E514D",
"5  c #71544D",
"6  c #74594D",
"7  c #6E4B52",
"8  c #674A57",
"9  c #724D54",
"0  c #764E59",
"q  c #685255",
"w  c #7B535A",
"e  c #795557",
"r  c #4C4F6D",
"t  c #795766",
"y  c #625772",
"u  c #706B75",
"i  c #7F6554",
"p  c #82565E",
"a  c #815A5D",
"s  c #885F5D",
"d  c #816654",
"f  c #836956",
"g  c #89665C",
"h  c #856B59",
"j  c #8A6D5B",
"k  c #856558",
"l  c #8D715B",
"z  c #93765E",
"x  c #855B63",
"c  c #8B5B64",
"v  c #885A64",
"b  c #905E67",
"n  c #915F69",
"m  c #8D6565",
"M  c #94636C",
"N  c #956869",
"B  c #987764",
"V  c #9A6770",
"C  c #9B6A72",
"Z  c #956674",
"A  c #887365",
"S  c #A76E78",
"D  c #A5717A",
"F  c #AB747B",
"G  c #A47376",
"H  c #B2737D",
"J  c #B37A7C",
"K  c #A47D63",
"L  c #A4856A",
"P  c #AB8D6C",
"I  c #A68966",
"U  c #AD916A",
"Y  c #B5966B",
"T  c #B69B72",
"R  c #BA9E72",
"E  c #BA937A",
"W  c #B08A77",
"Q  c #BDA274",
"!  c #BCA57C",
"~  c #BFAA7E",
"^  c #9D8161",
"/  c #C1A575",
"(  c #CBAE79",
")  c #C9AB75",
"_  c #CDB27B",
"`  c #DDBB7D",
"'  c #D3B57D",
"]  c #E5BF7B",
"[  c #E6C17D",
"{  c #E9C37E",
"}  c #F0C87D",
"|  c #153C89",
" . c #1A549A",
".. c #1F528C",
"X. c #254B88",
"o. c #2C538E",
"O. c #38568C",
"+. c #284C91",
"@. c #285695",
"#. c #355591",
"$. c #385C98",
"%. c #306292",
"&. c #1A5CA2",
"*. c #0D58A7",
"=. c #2658A0",
"-. c #1A64A9",
";. c #0E67B3",
":. c #146EB6",
">. c #1173BB",
",. c #1771B5",
"<. c #2565A6",
"1. c #3B64A3",
"2. c #2279BB",
"3. c #2275B7",
"4. c #3D78B3",
"5. c #405C91",
"6. c #5B6B8A",
"7. c #456B97",
"8. c #616D87",
"9. c #63728C",
"0. c #6A768B",
"q. c #697B96",
"w. c #727E91",
"e. c #5471A5",
"r. c #5C76A3",
"t. c #4E6DA3",
"y. c #AC7682",
"u. c #B47A84",
"i. c #BC7B86",
"p. c #BB7E89",
"a. c #B47885",
"s. c #946C82",
"d. c #C47E8A",
"f. c #C37D88",
"g. c #75849A",
"h. c #678DB8",
"j. c #5293C3",
"k. c #5698C6",
"l. c #8B8985",
"z. c #95938C",
"x. c #939795",
"c. c #BD818B",
"v. c #A89B84",
"b. c #B98986",
"n. c #ABA38C",
"m. c #A7A38E",
"M. c #B2A98D",
"N. c #B4A687",
"B. c #AAA692",
"V. c #8293AE",
"C. c #859CBB",
"Z. c #93A5BE",
"A. c #C4818C",
"S. c #CA818D",
"D. c #CC8693",
"F. c #CE8994",
"G. c #C68A95",
"H. c #D18A96",
"J. c #D58D99",
"K. c #DC8D9A",
"L. c #D38893",
"P. c #D59296",
"I. c #E3939F",
"U. c #C6B58B",
"Y. c #D7BA84",
"T. c #C6B68D",
"R. c #DB98A3",
"E. c #E595A2",
"W. c #E996A3",
"Q. c #ED99A6",
"!. c #EA9BA8",
"~. c #F49DAA",
"^. c #F99FAD",
"/. c #E3A1AD",
"(. c #FBA1AF",
"). c #F5A1AF",
"_. c #FFA4B2",
"`. c #FFA9B7",
"'. c #FEADBA",
"]. c #F2ABB7",
"[. c #FDB1BE",
"{. c #EFA7B3",
"}. c #E0BB8A",
"|. c #DEC285",
" X c #DCC48B",
".X c #DFC98F",
"XX c #D9C490",
"oX c #E3C483",
"OX c #E9C681",
"+X c #ECCA85",
"@X c #E5CB8B",
"#X c #EBCD89",
"$X c #E2C689",
"%X c #F1CE84",
"&X c #F0CF88",
"*X c #EED28D",
"=X c #F1D48D",
"-X c #F5D98E",
";X c #F8D88C",
":X c #E2CC94",
">X c #EED392",
",X c #EDD59B",
"<X c #F1D693",
"1X c #F4D993",
"2X c #FADE93",
"3X c #F2DA9B",
"4X c #F4DB99",
"5X c #FCE197",
"6X c #F3DBA0",
"7X c #FBE3A4",
"8X c #95A8C1",
"9X c #8CB2CC",
"0X c #97BCD1",
"qX c #93B9CF",
"wX c #ACBECD",
"eX c #FFB4C1",
"rX c #B6C8D2",
"tX c #ACC0CD",
/* pixels */
"[ [ ] ] [ OX+X*X*X*X*X*X*X*X1X2X*X~ i o d Q *X5X7X7X7X6X6X,X+XOXOX+X>X<X=X*X#XOX] ] ] ] OX#X>X&XOXOX] ] ] ] ",
"[ ] [ [ OXOX#X*X*X1X*X1X*X*X*X*X` T i 6 k T $X>X>X,X,X,X6X,XOXoXOX+X#X>X<X*X&XOXOX] ] { OX+X&X#XOX] ] ] OX] ",
"] ] [ OX+X#X>X>X<X*X*X-X*X*X[ _ ! L i i j L T / ! U.Y.:X4X<X+XOXOXOX#X#X&X#X#X#XOXOX] { OXOX+X+XOXOXOXOX] ] ",
"] [ OX#X>X,X3X3X1X1X*X*X-X@X_ U j A A C N m h f h A P Y.>X=X+X] ] OXOX+X#X=X=X#X#XOXOX] OXOXOX%X%X+XOXOX] ] ",
"[ [ +X>X3X6X6X6X,X<X*X*X-X@XQ ^ 5 w Z D C a 7 < < 5 z / }.%XOX] oX] OXOX#X=X<X=X&X#XOX{ ] ] OXOX#X#X#XOXOX] ",
"[ OX#X>X3X6X3X3X1X<X*X1X*X@X~ U l m N C M M c c p c N I R ( ] +X%X%XOX&X<X1X4X4X1X&X#XOXOXOXOXOX&X&X>X%XOXOX",
"*X+X*X>X<X4X>X,X1X<X*X*X-X*X` _ Q ^ A a b H f.d.d.d.F N l I ( +X=X&X&X<X1X4X4X4X1X=X*X#X#X+X+X&X=X=X#X#X#X+X",
"*X*X*X*X*X*X>X*X*X*X*X*X*X*X*X*X|.T d 2 v i.W.^.^.~.d.M e j R |.#X#X#X@X>X,X:X>X+X@X#X*X*X*X&X<X*X>X>X#X>X&X",
"*X>X*X*X*X#X*X*X*X*X*X*X<X<X1X5X=X/ f 1 p a.E._._._.K.H c N P T Q R R / / N./ R / ( |.%X*X=X*X*X#X#X+X#X#X#X",
">X*X#X+X{ #X#X*X*X*X*X<X1X3X5X5X=X/ f 3 0 D F.!.^.^.~.K.d.F N h d s f f h g k d f I ) [ &X=X*X*X+XOXOXOXOXOX",
"*X#X#X{ { { } *X*X*X*X1X3X3X,X>X|.Y d 1 9 V c.J.~.(._._.Q.S.N 9 1 1 1 8 2 2 3 1 5 j Y ' OX#X*X+XOXOXOX] [ [ ",
"#X#X+X+X@X{ *X*X*X*X*X1X3X3X.X|.Q ^ 5 < 7 M u.H.W.(._.`.(.K.H b p p v v c c c p s N K Y ) oX*X=X+XOXOX] ] ] ",
"{ oX+X+X#X#X=X=X*X*X*X-X1X*X' U j 6 ; ; 7 M u.H.Q.(._.`.(.~.K.d.d.d.d.d.d.d.d.d.f.H g j I ( *X1X-X&X+XOX{ ] ",
"[ { { +X*X=X*X*X*X*X*X=X-X.XQ l 3 X X < e C c.J.Q.(._._.(.(.^.~.~.^.~.~.~.Q.^.~.Q.d.b 6 j R oX#X#X@XoXOX{ ] ",
"OX{ #X#X*X*X*X=X*X*X*X-X-X{ R i # $ 1 e M J D.E.~._._._._._._.`._.`.`.~.J.d.H.~.^.K.H b B L E R R Q ( Y.oXOX",
"#X#X#X*X*X=X*X*X*X-X-X=X=X[ T i ; ; w C u.F.E.~.(.(._.`._.`.`._._.eX(.d.s.t V L.^.^.K.d.J N k s k z P _ OX=X",
"*X*X*X*X*X*X*X>X*X=X*X#X{ ' P d 3 0 M u.H.W.(.(._._.(.^.~.~.^.(._.`.~.a.8 O 8 p.~._._.Q.d.V 7 # o 2 z ~ .X-X",
"=X>X*X<X4X<X,X>X4X<X#X[ ) Y K g p M a.H.E.).(._._.(.W.K.L.L.K.W.^._.!.y.% O , y.~.eXeX_.I.f.v 7 # o f Q #X2X",
"*X=X<X3X3X3X3X3X4X<X#X( I j k m C a.F.Q.~.(._._.`.(.K.F N C J L.!.^.~.y.%   & y.Q.eX_.(.~.d.d.Z 9 1 f Q #X5X",
"=X*X<X3X3X3X3X3X3X1XOX/ j 2 9 M a.F.E.^._._.(._._.~.S.b 7 0 C c.K.~.!.a.8 O 8 a.~._._.(.(.(.Q.d.p 3 i T |.*X",
"=X=X>X3X4X3X3X3X4X4X*XR d < 7 M c.H.Q.(.`._._.`._.^.S.v < 3 n a.J.Q.~.D.Z t Z D.^._._._._.`.(.d.v 1 6 z Q ~ ",
"*X>X*X<X,X<X<X<X1X2X#XQ d < 7 M c.J.Q.(._._.(.`.`.^.S.p < 2 M a.H.!.^.W.D.p.G.E.(.(._._.`.`._.d.p < < 6 f l ",
"*X*X*X*X*X<X*X*X=X*X|.R h 2 0 Z c.J.!.(._._.(.(.(.~.p.v 2 9 C p.J.!.^.(.).~.^.(._._.(.(._.`.^.d.n 2 o < ; ; ",
"+X#X#X*X*X=X*X*XoX_ Q I j w M J D.I.).(._.`._.~.K.f.S x 0 m y.H.!.{.`.`.eXeX'.`._._._._._._.^.K.H b 9 < X . ",
"OXoX+X#X*X=X=X#X_ P l g N C u.F.W.).(.(._._.(.K.H M p p m D G./.].].eXeXeXeXeX`._._._._._._._.Q.I.d.V 0 X . ",
"] [ OX#X*X<X1X#X/ j 4 9 M u.F.E.~.(._.(._.(.Q.d.m 7 9 x C c.R.].eX].].].].].].{.^.^._._._._.(._.(.Q.f.c < X ",
"] ] OX+X=X=X-X@XR d < 2 Z p.F.K.Q.~.(.(.~.K.f.S c w w m D c./.].{.R.G.G.b.c.G.A.d.J.~._._.!.!._._._.S.c # . ",
"] ] OX+X*X-X-X$XR f < 9 M c.G.D.H.W.(.(.K.H b s M V C C D A.E.{.K.b.Z x Z t m t n y.R.].].!.K.E.(.(.S.b # . ",
"[ [ { #X*X-X=X#XQ h 1 9 Z u.c.c.A.J.W.W.d.M 0 p Z F y.D y.p.E.~.S.M 3 < < 2 3 3 9 Z G.{./.H.c.F.W.W.d.n 2 X ",
"[ [ { +X#X=X=X#XQ f < 9 M u.c.c.c.c.A.A.H V b c M C C D y.G.W.~.S.v ; o 6 f f f h B b.c.u.D C D a.f.J B j k ",
"[ [ [ { OX&X-X*XQ f < 9 Z u.A.c.p.F V M S H i.H m x m C u.H.Q.~.S.p ; 5 z R / ! T P A c w 0 0 0 w c N P R ) ",
"[ [ [ [ [ OX+X|.R h 2 0 C u.c.p.u.N 0 2 n d.I.d.c 3 9 M u.L.Q.Q.A.c 4 h U ` @X#X|.Q B q 1 < 3 < < 7 B Q |.=X",
"[ { { +XOX` _ R I g w m D u.u.y.V w 1 # n L.~.S.b < < w V u.J.I.S.H M B P / Y.*X*X' U l i i f i i h P _ *X5X",
"[ { %X&X+X_ P j g m C F a.p.y.m 0 3 # < b D.~.L.b < $ < e Z u.F.K.H.S.J B z Y ` *X#X_ Q R R Q Q Q Q _  X*X1X",
"` ] [ $X|.R j 4 e V y.p.p.y.V w 1 X X < b S.W.S.b < X ; 2 w C u.L.E.I.f.m 2 i T |.#X#X#X#X$X$X@X@X#X#X*X*X*X",
"Y Y Y Q R I m e v D p.a.D M x 1 @ . . < p i.L.a.p # < 6 d m m C y.L.K.y.y , q ^ R Y.#X4X5X5X1X=X=X1X*X*X#X#X",
"d d d f j j m C D u.u.F c 0 1 # @ X X # w S u.C 9 < 6 B T I g e b H i.s.y * % q l U  X6X5X5X>X=X=X=X*X+XOXOX",
"3 o < ; < w V a.c.c.u.C x 3 ; # # X X # 7 c V m 9 2 j R Y./ l 4 0 c V u 5.= * % q l N.,X,X<X*X=X*X*X#X{ [ ] ",
"f d 6 < X 7 n y.u.u.y.G N d 6 3 # & & & > 0 t g k z Y Y.+X' U l k a x y - X.X.= * u l.B.XX:X>X;X=X+XOX[ [ ] ",
"/ Y z 6 ; 7 b D y.y.y.W T Y I 6 ; % O * * > 4 l I / ` OX*X$X' Q L d 7 r O.=.-. .%.%.%.g.x.T.#X;X&XOX[ [ [ ] ",
"*X|.R j 2 7 x C C C G E Y.Y.Q j 1 % + = = O : i T  X@X>X*X=X*X|.R l q * o.3.,.,.,.-.&.%.q.B..X#XOX{ [ ] ] ] ",
"-X+X_ U l k a x n Z G A.Y.@X( u , + X...X.= , u l.M.T.@X=X1X2X>XQ u , = &.,.>.>.;.;.*. .1.g.m.U.Y.oXOX{ { ] ",
"+X{ |._ Q ^ d 9 0 v D ! Y.@XN.u - X.@.&.&.%.%.%.6.0.x.T.*X2X2X#XN.u - X.&.,.>.>.:.;.;.-.<.1.0.z.U.$X%XOX] ] ",
"[ [ OX+X|.Q j 4 8 x C b.Y..XN.g.o. .&.:.,.,.:.-. .#.0.m. X=X<X$XN.0.O. .-.3.2.2.2.2.2.3.<.@.%.0.M.@X%XOX{ ] ",
"[ [ { &X+X_ I l k w c L Y.$XM.9.+.&.*.:.>.>.:.;.*. .7.g.v.T.$X|.n.8.o.=.4.j.j.j.k.k.k.j.4.&.o.6.v.|.&X+XOXOX",
"[ [ { { { |.' R B k 9 B ) }.M.q.+. .;.:.>.>.>.:.;.-.<.7.0.z.U.` v.6.#.t.h.9X0X0XqX0X0X9Xh.1.+.6.v.Y.%X&X+X&X",
"[ [ [ { OXOX+X|.R j 4 z )  XM.9.o.&.-.2.,.2.2.2.2.,.<.@.O.0.n.Y.v.8.#.t.C.wXrXrXrXrXrXrXh.t.O.8.v.` %X&X=X=X",
"[ [ [ [ OX+X=X#X_ I B I ' $XB.9.o.=.4.j.k.k.k.k.k.j.4.@.+.6.v.Y.v.6.o.$.h.C.8XZ.Z.Z.8XZ.C.q.q.L ! ] OX#X=X=X",
"[ [ { +X+X+X+X+X` ( ~ _ +X.Xm.9.o.1.h.9X0X0X0X0X0X9Xh.1.+.6.v.Y.N.9.+.+.$.e.e.e.e.t.e.e.q.z.v.R Y.] +X+X<X<X",
"[ [ OX+X*X#XOX[ [ OX$X#X=X@Xn.9.$.e.C.rXrXrXrXrXrXwXC.e.5.0.M.Y.M.0.O.+.o.#.#.#.#.#.#.$.9.v.' ] ] oXOX+X&X=X",
"[ [ [ +X+X+X[ [ { #X=X=X-X@XU.z.g.g.g.8X8XZ.8X8X8X8XV.q.w.x.T.:XT.z.0.6.6.9.9.9.9.6.6.8.l.U.] } OXOXOX#X#X%X",
"[ [ [ [ OXOX[ [ { { { =X#X*X.XU.n.z.g.r.e.e.e.e.r.r.g.x.B.T.:X@X XU.E v.v.n.n.n.m.v.v.T ! ' ] ] OX+X+X+XOXOX",
"[ ] [ [ [ [ [ [ [ [ [ { +X#X=X=X}.m.9.o.+.+.o.+.+.#.9.m. X=X>X#X+XoX` |.$X@X:X:X@X$XY.] ` ] [ OX#X#X#XOX] ] ",
"] [ [ ] [ [ [ [ [ [ [ { +X=X;X;X>XM.9.X.| | X.| | X.9.B.>X2X1X>X#XOX} } =X;X2X;X;X%X%X} { [ [ OX#X>X&XOX] ] "
};
