/* XPM */
static char *tralalero17445619171744562080[] = {
/* columns rows colors chars-per-pixel */
"54 54 220 2 ",
"   c #131D33",
".  c #151E38",
"X  c #0E1930",
"o  c #162036",
"O  c #1A2336",
"+  c #1B253A",
"@  c #1D283D",
"#  c #15213A",
"$  c #232B3C",
"%  c #292F3C",
"&  c #222838",
"*  c #2C323E",
"=  c #27303D",
"-  c #1E2B42",
";  c #162847",
":  c #1D365B",
">  c #192E52",
",  c #222D42",
"<  c #212F4C",
"1  c #253145",
"2  c #2B3343",
"3  c #26344A",
"4  c #2A364A",
"5  c #2E3A4C",
"6  c #2E3847",
"7  c #313642",
"8  c #333944",
"9  c #323D4D",
"0  c #3B3E44",
"q  c #2D3C52",
"w  c #27395A",
"e  c #313E51",
"r  c #173966",
"t  c #0F396C",
"y  c #3C414A",
"u  c #344254",
"i  c #3B4552",
"p  c #364559",
"a  c #3C4A5D",
"s  c #3A4759",
"d  c #1A427A",
"f  c #3E4E61",
"g  c #3F5062",
"h  c #2B4974",
"j  c #444445",
"k  c #4B4C4E",
"l  c #474849",
"z  c #55534E",
"x  c #59564E",
"c  c #5D594F",
"v  c #4B4E50",
"b  c #434B57",
"n  c #4E5253",
"m  c #4A535D",
"M  c #5C5952",
"N  c #555754",
"B  c #514F4B",
"V  c #625E53",
"C  c #60594F",
"Z  c #656155",
"A  c #6A655A",
"S  c #686558",
"D  c #766D5B",
"F  c #7A725D",
"G  c #424E60",
"H  c #435365",
"J  c #465668",
"K  c #46596B",
"L  c #4A5B6C",
"P  c #4A5766",
"I  c #4D5F70",
"U  c #465971",
"Y  c #525F71",
"T  c #4F6071",
"R  c #49607D",
"E  c #536475",
"W  c #556778",
"Q  c #566979",
"!  c #5B6D7D",
"~  c #5D707F",
"^  c #7D7661",
"/  c #777260",
"(  c #64696F",
")  c #867A5E",
"_  c #867C62",
"`  c #7F837C",
"'  c #8E8264",
"]  c #8B836A",
"[  c #9A8D6B",
"{  c #978766",
"}  c #A4946E",
"|  c #AC9A6F",
" . c #A69770",
".. c #AC9B72",
"X. c #AB9D7B",
"o. c #A79872",
"O. c #B09F72",
"+. c #A08B65",
"@. c #B9A67A",
"#. c #C3AD79",
"$. c #C1A875",
"%. c #C9B37D",
"&. c #DCBC7E",
"*. c #D4B57B",
"=. c #E5BF7B",
"-. c #E6C17D",
";. c #EAC47E",
":. c #F0C87D",
">. c #153C89",
",. c #144682",
"<. c #1B548B",
"1. c #165499",
"2. c #174F97",
"3. c #294B8D",
"4. c #2D558C",
"5. c #3B588E",
"6. c #274C92",
"7. c #2A4E91",
"8. c #295596",
"9. c #355491",
"0. c #385C98",
"q. c #175CA2",
"w. c #0E59A8",
"e. c #2658A0",
"r. c #1864A9",
"t. c #136DB5",
"y. c #136BB5",
"u. c #1273BC",
"i. c #1671B6",
"p. c #0E65B1",
"a. c #2565A6",
"s. c #2279BB",
"d. c #2275B7",
"f. c #3D78B3",
"g. c #3962A3",
"h. c #16609E",
"j. c #405C91",
"k. c #5C6C88",
"l. c #5E7181",
"z. c #446A97",
"x. c #4A688B",
"c. c #626E87",
"v. c #617483",
"b. c #63718B",
"n. c #6A768B",
"m. c #6C7B8B",
"M. c #697889",
"N. c #697A94",
"B. c #727E90",
"V. c #707A85",
"C. c #5471A5",
"Z. c #5C76A3",
"A. c #496BA4",
"S. c #6F818F",
"D. c #728391",
"F. c #788798",
"G. c #76838B",
"H. c #678DB8",
"J. c #5294C3",
"K. c #5698C6",
"L. c #8B8885",
"P. c #95938C",
"I. c #84929F",
"U. c #939796",
"Y. c #A59983",
"T. c #A99D84",
"R. c #ACA48C",
"E. c #A9A38B",
"W. c #B4AA8D",
"Q. c #B1A387",
"!. c #AAA692",
"~. c #B5AC91",
"^. c #8797A8",
"/. c #859CBB",
"(. c #929FAB",
"). c #93A2AD",
"_. c #97A7B8",
"`. c #C5B58B",
"'. c #CAB685",
"]. c #D5BD83",
"[. c #DBBE82",
"{. c #D2B884",
"}. c #CBBD94",
"|. c #C1AD85",
" X c #D7C085",
".X c #DAC184",
"XX c #DBC48A",
"oX c #DFC88E",
"OX c #DCC893",
"+X c #E4C583",
"@X c #E9C682",
"#X c #ECCA85",
"$X c #E4CB8B",
"%X c #ECCE89",
"&X c #E2C689",
"*X c #F1CD85",
"=X c #F0CF89",
"-X c #EED28D",
";X c #F2D48D",
":X c #F6D88E",
">X c #FADB8E",
",X c #F3D288",
"<X c #E3CD94",
"1X c #EED492",
"2X c #EAD39A",
"3X c #F1D693",
"4X c #F5D993",
"5X c #FBDD93",
"6X c #F2DA9B",
"7X c #F6DB9A",
"8X c #FEE297",
"9X c #F3DBA0",
"0X c #FCE3A4",
"qX c #95A8C1",
"wX c #8CB2CC",
"eX c #97BCD1",
"rX c #93B9CF",
"tX c #ACBECD",
"yX c #B6C8D2",
"uX c #ACC0CD",
/* pixels */
"-.-.=.=.-.@X#X-X-X-X-X-X-X-X5X8X-X..N = x | :.8X0X0X0X0X6X2X$X;.@X%X=X3X1X;X=X@X-.=.=.-.@X=X1X%X@X@X=.=.=.=.",
"-.=.-.-.@X@X%X-X-X:X-X:X:X-X-X:.%.} z 8 B { &.-X2X<X6X6X6X1X$X;.@X#X%X3X;X-X%X@X;.=.=.-.@X*X=X=X+X@X=.=.=.=.",
"=.=.-.@X%X%X1X1X1X1X-X:X-X-X&.#.[ ` n 8 n ` } ..X. .#.$X6X4X:.;.+X@X%X=X-X-X%X#X@X@X;.=.@X@X*X@X@X@X@X@X@X=.",
"=.-.@X%X1X2X6X6X3X4X-X-X:X$X#.` c n i p i n x c N ` ` %.-X:X$X-.=.@X@X@X%X-X-X%X%X@X@X=.=.+X@X*X@X*X@X@X=.=.",
"=.-.#X1X6X9X9X9X6X-X-X:X:X$XO.D 0 = u a u = = O & 8 V } .X-X:.-.=.=.@X$X%X1X1X-X%X%X@X;.=.=.+X@X%X=X*X+X@X=.",
"@X@X%X1X6X6X6X6X6X3X-X4X:X$X@.' c k i i u 6 1 @ = 6 n `  .@.&.;.*X*X*X*X3X4X4X5X3X,X%X@X@X+X@X%X=X1X=X#X@X@X",
"#X%X-X1X6X3X2X3X3X-X-X-X:X-X.X@.} ` j 8 5 p g h g g n n c ` @.-X;X,X;X4X5X7X7X7X5X;X%X%X*X%X%X%X=X3X1X%X=X#X",
"-X-X-X-X-X-X-X3X-X-X-X-X-X-X-X-X&.} x = 3 g E ` ` Q K 8 0 Z o.&.%X%X$X$X<X2X<X<X$X%X%X-X1X=X=X;X1X%X1X=X1X#X",
"1X1X-X-X%X%X-X-X-X-X-X1X1X3X4X8X:.O.c = - g R R x.! K p u n ` [ ..| | ..X.X.X.o.O.#. X#X;X;X-X-X%X%X%X%X%X%X",
"-X-X-X@X;.#X%X-X-X-X-X3X3X6X8X8X4XO.c = - p K ` ! ! R U K g z c c c M M M M M z V ) $.-.,X;X-X%X%X@X+X@X@X@X",
"-X-X#X@X;.$X%X-X-X-X-X4X6X6X6X4X&.} N = - u K T Q ! ` R Q K y = $ % % 1 , 2 $ @ * V +.*.@X%X-X%X@X;.=.=.-.-.",
"%X%X#X@X;.:.%X-X-X-X-X3X6X6XoX%.[ ` j @ - u g T Q ! x.` ` I a 5 3 3 3 3 4 4 3 3 5 z D +.$..X-X:X,X@X@X;.-.=.",
"+X@X@X#X%X%X-X;X:X-X-X:X4X1X@.{ c j = O = u g K E R x.` R R K g g H H H J J H H H b v V ' @.-X:X4X,X#X@X=.=.",
"-.-.@X#X-X-X-X;X-X-X-X;X:X$X| Z = O O O 3 p K T E R ` x.` R R ` ! ! ! Q W Q Q ! E J 9 8 Z  . X-X$X&X+X+X=.;.",
"@X@X#X#X-X-X-X;X-X;X-X:X:X.X .x @ X O = u g K K ` R ` R R ` ` x.l.v.l.Q I U Y ! ! I p e n ^ [ O.....#.*.+X@X",
"%X%X-X-X-X-X-X;X-X-X;X:X;X-.} x @ # 1 u g K Q R ` x.x.` x.x.` x.v.l.l.I f u f I ! Q I J H N M x M S ' #.+X;X",
"-X-X-X-X-X-X-X-X-X-X-X:.:.$.{ z = - q g K T ~ Q ~ ~ ` R R ` R Q ~ ~ ~ J u @ 5 K ! l.l.Q K i 2 + @ * S O.oX:X",
"-X-X4X1X4X1X6X6X4X4X-X&.$.' ` k 6 5 g T R R ` x.` Q Q T K K K E Q ~ ! H 2 O 2 H ! l.l.~ T p 4 @ o @ M O.%X8X",
"-X-X1X4X6X6X6X6X6X4X:.#.' c k u p p K E R ` ` x.x.R K p q u g K E ! Q H 4 O 2 J ! M.l.l.Q T g u - @ M O.$X8X",
"1X-X6X6X6X6X6X6X6X4X:.| C * = q g K K ` R ` R x.x.` K 5 = 1 u g T Q Q P u @ u g ! l.l.l.~ ~ Q g 1 = x }  X-X",
"-X-X4X6X6X6X6X6X6X8X$Xo.z @ @ q g R R ` R ` Q ` ` R g 5 # @ 5 g L E Q L a u a L ! l.l.l.l.l.! g 4 $ j F } O.",
"-X4X-X-X6X4X1X1X8X5X$X..c @ @ q g I R R x.R x.` x.` K 5 # @ 6 a K E Q Q L K L E l.l.l.l.l.l.! J 5 + = j x Z ",
"-X-X1X-X-X-X:X-X-X:.&.} N = - q K T Q ` ` R x.x.Q E g 5 - - u K T Q ~ M.~ ~ ! l.l.l.! l.l.l.~ J u @ + & @ & ",
";.-X$X-X-X-X-X-X&.#.} ` n 6 q g K E ` R x.` ` R K K a u u p K ` S.G.F.F.F.F.D.M.l.l.! ! l.l.~ T a 5 1 O o X ",
";.;.$X-X-X:X:X$X#.` Z B j u p K R Q ` Q x.R ` T g q u i K T S.F.(.(.).!._.).I.D.M.! ! ! ! v.! Q T P u 1 o X ",
";.&.;.;.-X:X4X;.O.Z * = q g p ` ` E x.R ` ` K K q = u H ` S.F._._._._._._._.^.B.! ! ~ v.v.! ! k.~ W H 4 O o ",
"&.-.;.-X-X:X4X$Xo.z @ @ 5 g K T K x.x.` R K g p 3 6 u K ` F.)._.(.^.L.F.G.B.c.Y K E m.D.m.! Y E ~ ~ J 5 O X ",
"-.-.;.-X-X:X4X$Xo.z @ @ q g K K K T x.` K p 5 3 q p g T ` D.F.F.B.! J G m G e 5 e L G.^.F.Q H L W Q K 5 o X ",
"-.;.;.-X-X4X4X$Xo.c = @ 5 g g g K T E E g 5 = = u g K E R z.S.S.Q s , & , 2 , $ 2 P G.(.F.Y p a L E J u % + ",
"-.&.;.;.:.-X:X$XO.c = @ q g K g g g K K a q 6 6 5 p g K R ` x.` Y 5 & & j x C M M ( V.V.Q f 3 3 p H P N M M ",
"-.&.-.;.:.-X:X-X..M = @ q g g K g g q 5 q g g i 5 6 q g h ` ` x.J 4 & j D } O.O.o._ ( b q 1 + + - 5 N _ } O.",
"-.;.-.-.-.$X:.&.[ N = = 5 g g g g u = @ 3 p ` K q @ 1 u g K Q R H 5 , z [ *.$X1X]...V 0 $ $ $ $ + 7 Z o. X-X",
";.;.:.;.;.&.#. .` j 6 u u g g p u 2 + O 5 L Q L 9 + + 1 u f K T K p i N _ ..{.-X-X%.' V z x c x z Z ' %.-X8X",
":.:.:.:X:.@.' Z k y u p a g p u 1 & O O 5 L Q L 9 + o + , 5 f J L K P P N A { '.-X$X#.| }  . . . .| @.oX-X:X",
"*.&.&.$X&.} V 8 = u g g g a u = + o   + u J E J 9 + O + 1 6 u g L E E H e 8 M  . X%X$XoX$X$X$X$X&X$X$X-X-X-X",
"+.[ } ..+.` v = 3 p g g p u 3 @ O     O 6 H L g 1 O * j z B i u f E ! U w < i D } %.%X8X8X>X:X:X4X4X;X-X%X#X",
"B B z c x B i u p a g p 5 @ o o       O 2 s g u - + j F [ ) v 2 e U Q E h : w l V ]  X6X8X8X;X:X4X3X,X#X@X@X",
"* = = = = = u p g g g i u = @ O O o O + 1 u p u 1 7 Z ..%...Z 8 9 J W R h d r ; u S X.OX6X3X-X-X-X%X#X@X;.=.",
"c z 0 =   + 3 u p p y k z z j * O # ; - < 3 y y B S [ %.%X%.{ Z N m H h 4.<.d t r g G.!.OXoX;X-X,X%X@X;.=.=.",
"O.[ D 0 o o @ u 6 6 0 c ` { ` l + ; > r > - = B F ..%.#X-XXX#.o.^ N u h 4.r.r.1.<.<.g.S.U.}.-X:X*X@X;.;.=.=.",
"%X X .Z * + $ = @ = 6 S ..%...M , ; r d r ; = x [ {.$X1X=X;X1X[. .N 3 r <.y.u.u.i.r.e.0.S.!.OX$X@X@X+X=.@X=.",
"4X%X#.{ V j 2 & # # 6 D @.oX@.( w r >.<.,.r : P ^ W.}.$X3X5X5X%XX.S w t 1.i.u.u.i.t.w.q.g.F.E.`.[.+X=.=.=.=.",
"*X#X&.#. .F y + X # 6 S @.oXW.~ h ,.1.q.q.1.<.4.z.N.P.}.-X>X5X<XQ.( h ,.w.t.u.u.i.t.p.r.a.z.S.P.`.&X*X@X=.=.",
"-.-.@X#X X} Z * # # * S O.&.W.S.4.2.q.y.i.i.i.h.8.0.n.!.XX:X:X$XE.b.4.2.r.d.s.s.s.s.i.d.i.8.4.M.R.$X*X@X@X=.",
"=.-.@X,X%X#.' Z y = = V O..X~.S.8.q.w.u.u.u.u.p.w.1.z.F.T.`.&XXXT.b.9.e.A.J.K.K.J.K.K.J.f.8.8.k.T.&X*X*X@X@X",
"=.-.;.@X;.&.#. .D y = c | .XW.S.9.2.r.y.u.u.u.y.p.r.e.z.n.P.|.[.T.b.8.A.H.wXeXeXrXeXeXwXH.g.7.x.Y.[.*X*X*X%X",
"-.-.-.-.-.#X%X&.} x y V O.XX!.m.8.1.r.d.u.s.s.s.s.d.a.8.9.V.Q.{.Y.c.9.A./.tXyXyXuXyXyXtX/.C.5.v.Y.+X*X=X=X1X",
"-.-.-.;.@X*X;X:.@.' A ' #.XX~.k.8.a.A.J.K.K.K.K.K.J.f.e.3.c.Y.{.T.c.9.0.H./.qXqXqXqXqXqX^.N.n.L.X.=.@X=X=X3X",
"=.-.@X#X#X-X#X@X*.@.@.@.;.oX!.k.8.g.H.wXeXeXeXeXeXwXH.g.7.k.Q.].Q.b.7.6.0.C.C.C.C.C.C.Z.N.L.Y.@.*.=.@X=X3X3X",
"-.-.@X#X-X#X@X-.-.+XoX%X-X$X!.l.j.C./.tXyXyXyXyXyXtX/.C.j.n.~.}.~.n.9.3.9.9.9.9.9.9.7.j.N.Y.{.=.=.@X@X#X=X3X",
"=.-.;.@X#X#X-.-.@X=X,X;X:X$X~.P.S.F.H._.qXqX_.qXqXqX/.N.B.P.`.&X`.P.n.c.c.b.b.n.b.b.c.c.L.$.@X:.@X@X@X#X#X*X",
"-.=.-.;.@X@X-.-.;.;.#X=X-X-X$X XW.U.F.Z.Z.C.Z.C.C.Z.B.U.!.}.<X$X[.|.Q.Y.T.R.R.R.T.T.Y.Y.Q.*.=.@X*X@X*X@X@X@X",
"-.=.-.-.-.-.-.-.-.-.-.;.*X-X-X=XXXE.n.9.6.6.6.6.6.9.b.!.OX%X1X1X@X+X=.[.[.$X$X<X$X&X[.&.=.=.+X@X%X%X#X@X@X=.",
"=.-.-.=.-.-.-.-.-.-.-.-.#X-X>X>X1XW.b.3.>.>.>.>.>.3.b.R.1X5X:X%X%X@X:.*X3X4X4X4X>X,X*X:.=.=.=.@X%X1X%X@X=.=."
};
